<?xml version="1.0" encoding="UTF-8" standalone="no" ?>
<!DOCTYPE svg PUBLIC "-//W3C//DTD SVG 1.1//EN" "http://www.w3.org/Graphics/SVG/1.1/DTD/svg11.dtd">
<svg xmlns="http://www.w3.org/2000/svg" xmlns:xlink="http://www.w3.org/1999/xlink" version="1.1" width="640" height="480" viewBox="0 0 640 480" xml:space="preserve">


<defs>
</defs>
<g transform="matrix(1 0 0 1 550.5 469)"  >
<g style=""   >
		<g transform="matrix(1 0 0 1 -230.2 -226.8)"  >
<path style="stroke: none; stroke-width: 1; stroke-dasharray: none; stroke-linecap: butt; stroke-dashoffset: 0; stroke-linejoin: miter; stroke-miterlimit: 4; fill: rgb(153,0,51); fill-rule: nonzero; opacity: 1;"  transform=" translate(-269.8, -273.2)" d="M 387.1 347.7 c 11.9 48.4 30.1 74.9 51.2 74.9 c 22.8 0 32.9 -6.4 48.4 -33.8 l 24.7 8.2 c -20.1 57.5 -42.9 81.3 -83.1 81.3 c -33.8 0 -57.5 -30.1 -72.2 -92.3 l -8.2 -35.6 c -45.7 90.4 -87.7 127.9 -149.8 127.9 c -116.9 0 -169.9 -74.9 -169.9 -188.2 c 0 -168.1 117.8 -222 201 -222 c 106.6 0 123.3 132.4 123.3 132.4 l 47.5 -127.9 c 13.7 0 30.1 4.6 43.8 4.6 s 28.3 -4.6 40.2 -4.6 l -109.6 222 L 387.1 347.7 z M 324.1 247.3 c -21 -87.7 -44.8 -142.5 -99.6 -142.5 c -61.2 0 -116 59.4 -116 164.4 c 0 98.6 26.5 172.6 94.1 172.6 c 42 0 80.4 -51.2 111.4 -137.9 l 14.6 -37.5 L 324.1 247.3 z" stroke-linecap="round" />
</g>
		<g transform="matrix(1 0 0 1 -279.9 -234.9)"  >
<path style="stroke: none; stroke-width: 1; stroke-dasharray: none; stroke-linecap: butt; stroke-dashoffset: 0; stroke-linejoin: miter; stroke-miterlimit: 4; fill: rgb(153,0,51); fill-rule: nonzero; opacity: 1;"  transform=" translate(-220.1, -265.1)" d="M 168.3 203.1 c 0 0 1.6 0.6 8.5 0.6 c 0.9 0 2.8 -0.4 2.8 -0.4 l 69.8 83.7 c 8.8 10.6 11.7 15 12 4.7 v -50.3 c 0 -14.2 -0.4 -27 -2 -37.7 l 0.4 -0.6 c 2.4 0.4 4.7 0.6 7.1 0.6 s 4.7 -0.2 7.1 -0.6 l 0.4 0.6 c -3.3 41.8 -3.1 74.6 -4.1 117.6 c -0.2 3.6 -1 5.8 -3.9 5.8 c -3.3 0 -6.5 -1.7 -8.7 -4.5 l -71 -83.1 c -7.5 -9 -7.9 -8.5 -7.9 3 v 45 c 0 14.1 0.4 27 2 37.7 l -0.4 0.6 c -2.4 -0.4 -4.7 -0.6 -7.1 -0.6 c -2.4 0 -4.7 0.2 -7.1 0.6 l -0.4 -0.6 c 3.3 -30 3.9 -85.8 2 -121.6 L 168.3 203.1 z" stroke-linecap="round" />
</g>
</g>
</g>
</svg>